PathFileType	4	(x/y/z)	S01_PSF_T11.trc
DataRate	CameraRate	NumFrames	NumMarkers	Units	OrigDataRate	OrigDataStartFrame	OrigNumFrames
240	240	6	51	mm	240	55	436
Frame#	Time	Sternum			R.Acromium			L.Acromium			Top.Head			R.ASIS			L.ASIS			R.PSIS			L.PSIS			R.Great.Tro			L.Great.Tro			R.Iliac.Crest			L.Iliac.Crest			V.Sacral			R.Thigh.Upper.Post			R.Thigh.Lower.Ant			R.Thigh.Lower.Post			R.Thigh.Upper.Ant			R.Knee.Lat			R.Knee.Med			R.Shank.Upper.Post			R.Shank.Lower.Ant			R.Shank.Lower.Post			R.Shank.Upper.Ant			R.Ankle.Lat			R.Ankle.Med			R.Heel.Upper			R.Heel.Med			R.Heel.Lat			R.Toe.Lat			R.Toe.Med			R.Toe.Tip			L.Thigh.Upper.Post			L.Thigh.Lower.Ant			L.Thigh.Lower.Post			L.Thigh.Upper.Ant			L.Knee.Lat			L.Knee.Med			L.Shank.Upper.Post			L.Shank.Lower.Ant			L.Shank.Lower.Post			L.Shank.Upper.Ant			L.Ankle.Lat			L.Ankle.Med			L.Heel.Upper			L.Heel.Med			L.Heel.Lat			L.Toe.Lat			L.Toe.Med			L.Toe.Tip			Cervical.Spine			Back			
		X1	Y1	Z1	X2	Y2	Z2	X3	Y3	Z3	X4	Y4	Z4	X5	Y5	Z5	X6	Y6	Z6	X7	Y7	Z7	X8	Y8	Z8	X9	Y9	Z9	X10	Y10	Z10	X11	Y11	Z11	X12	Y12	Z12	X13	Y13	Z13	X14	Y14	Z14	X15	Y15	Z15	X16	Y16	Z16	X17	Y17	Z17	X18	Y18	Z18	X19	Y19	Z19	X20	Y20	Z20	X21	Y21	Z21	X22	Y22	Z22	X23	Y23	Z23	X24	Y24	Z24	X25	Y25	Z25	X26	Y26	Z26	X27	Y27	Z27	X28	Y28	Z28	X29	Y29	Z29	X30	Y30	Z30	X31	Y31	Z31	X32	Y32	Z32	X33	Y33	Z33	X34	Y34	Z34	X35	Y35	Z35	X36	Y36	Z36	X37	Y37	Z37	X38	Y38	Z38	X39	Y39	Z39	X40	Y40	Z40	X41	Y41	Z41	X42	Y42	Z42	X43	Y43	Z43	X44	Y44	Z44	X45	Y45	Z45	X46	Y46	Z46	X47	Y47	Z47	X48	Y48	Z48	X49	Y49	Z49	X50	Y50	Z50	X51	Y51	Z51	

55	0.225	-1061.3	1289.3	271.42	-1164.7	1549.2	439.8	-1182.3	1555.9	111.64	-1078.6	1851.5	257.46	-1116.5	1046.1	432.88	-1102.8	1044.9	168.57	-1349.9	1078.4	335.42	-1354.4	1080.4	232.04	-1195.1	992.76	515.73	-1207.8	991.2	89.802	-1206.3	1146.8	492.66	-1212.8	1122.7	89.595	-1365.3	1043.5	280.9	-1111.5	691.51	512.14	-1021.1	641.39	502.25	-1082.2	607.59	499.62	-1048.7	728.21	512.49	-1056.5	552.25	502.21	-1022	551.28	353.61	-1186.9	458.56	500.36	-1183.6	353.18	466.69	-1232	405.19	485.9	-1142.4	411.14	488.24	-1350.6	245.44	442.11	-1304.9	226.15	356.61	-1415.7	263.28	370.69	-1410.8	228.29	339.21	-1431.5	234.73	403.32	-1308.3	106.37	490.58	-1257.9	86.985	376.19	-1212.2	66.285	441.72	-1226.4	704.77	117.61	-1136.6	637.3	117.62	-1211	615.95	136.9	-1162.6	728.72	96.363	-1156.9	532.86	129.66	-1131.7	538.39	271.4	-1222.3	396.37	113.8	-1166.4	303.86	140.56	-1227.4	318.21	119.1	-1160.5	379.77	130.57	-1258.7	108.8	158.43	-1231.2	117.34	256.95	-1330.2	78.393	205.75	-1319.9	53.275	238.34	-1323.4	53.565	176.33	-1112.8	40.427	139.02	-1085.5	45.022	260.07	-1022.4	53.701	207.51	-1250.9	1613.9	278.94	-1362.8	1307.9	301.18
56	0.22917	-1055.9	1289.9	271.53	-1159.8	1549.6	439.85	-1176.7	1556.5	111.61	-1073.1	1851.9	257.76	-1111.3	1046.9	432.38	-1097.8	1045.4	168.18	-1344.8	1079	335.62	-1349.6	1081	232.24	-1189.5	993.61	515.65	-1203.2	991.56	89.78	-1201	1147.6	492.37	-1208	1123.2	89.488	-1360.3	1044.1	281.12	-1104	692.77	512.2	-1013.3	643.39	501.76	-1074.2	609.09	499.37	-1041.6	729.98	512.28	-1048	553.82	501.76	-1013.8	553.36	353.36	-1176.9	457.52	500.11	-1171.5	352.31	466.2	-1220.8	403.27	485.51	-1131.4	411.06	487.89	-1336.3	241.08	441.72	-1290.3	223.04	356.08	-1402	257.54	370.53	-1396.9	222.73	339.15	-1417	228.41	403.2	-1290.4	103.16	489.93	-1239.7	85.259	375.29	-1193.9	65.934	440.7	-1224.3	705.46	117.61	-1134.9	637.28	117.57	-1209.5	616.51	136.82	-1160.3	728.9	96.295	-1156.1	532.91	129.5	-1131.1	538.17	271.35	-1221.9	396.51	113.72	-1166.2	303.91	140.44	-1227.2	318.36	119.05	-1160.1	379.83	130.44	-1258.7	108.88	158.46	-1231.1	117.44	256.93	-1330.1	78.508	205.79	-1319.9	53.399	238.37	-1323.4	53.674	176.37	-1112.8	40.419	139.01	-1085.4	45.041	260.03	-1022.4	53.695	207.48	-1245.5	1614.4	278.77	-1357.6	1308.4	300.71
57	0.23333	-1050.5	1290.5	271.65	-1154.8	1550	439.91	-1171	1557	111.58	-1067.6	1852.3	258.07	-1106.1	1047.6	431.92	-1092.9	1045.8	167.79	-1339.7	1079.4	335.82	-1344.7	1081.6	232.43	-1183.8	994.39	515.59	-1198.6	991.88	89.763	-1195.8	1148.4	492.11	-1203.2	1123.7	89.387	-1355.3	1044.7	281.34	-1096.6	693.98	512.25	-1005.6	645.32	501.23	-1066.2	610.54	499.07	-1034.5	731.68	512.04	-1039.6	555.32	501.29	-1005.8	555.37	353.09	-1166.9	456.37	499.86	-1159.3	351.38	465.69	-1209.6	401.23	485.11	-1120.3	410.9	487.53	-1321.8	236.63	441.33	-1275.6	219.86	355.55	-1388	251.63	370.35	-1382.8	217.03	339.09	-1402.2	221.97	403.08	-1272.3	99.986	489.31	-1221.4	83.556	374.42	-1175.1	65.641	439.69	-1222.1	706.13	117.62	-1133.1	637.25	117.52	-1207.9	617.06	136.75	-1157.9	729.05	96.238	-1155.4	532.96	129.34	-1130.4	537.95	271.29	-1221.5	396.63	113.65	-1166	303.95	140.31	-1226.9	318.5	119	-1159.8	379.88	130.31	-1258.6	108.97	158.5	-1231	117.53	256.92	-1330.1	78.616	205.83	-1319.9	53.516	238.41	-1323.3	53.78	176.41	-1112.8	40.411	138.99	-1085.4	45.063	259.99	-1022.4	53.689	207.46	-1240.1	1614.8	278.62	-1352.3	1308.9	300.27
58	0.2375	-1045.1	1290.9	271.77	-1149.8	1550.3	439.98	-1165.4	1557.5	111.57	-1062.1	1852.6	258.41	-1100.9	1048.3	431.49	-1087.9	1046.1	167.41	-1334.6	1079.9	336.02	-1339.8	1082.1	232.63	-1178.2	995.09	515.53	-1194	992.15	89.75	-1190.6	1149	491.89	-1198.5	1124.1	89.292	-1350.3	1045.2	281.56	-1089.3	695.14	512.27	-997.99	647.17	500.67	-1058.2	611.92	498.75	-1027.5	733.3	511.79	-1031.2	556.76	500.79	-997.88	557.3	352.8	-1156.9	455.11	499.61	-1147.1	350.39	465.18	-1198.4	399.09	484.71	-1109.3	410.68	487.15	-1307.3	232.11	440.94	-1260.8	216.62	355.04	-1373.9	245.57	370.16	-1368.5	211.21	339.03	-1387.3	215.42	402.94	-1254.1	96.861	488.7	-1203	81.886	373.6	-1156	65.42	438.72	-1219.9	706.78	117.62	-1131.4	637.21	117.47	-1206.4	617.6	136.66	-1155.5	729.19	96.191	-1154.6	533	129.17	-1129.7	537.72	271.22	-1221.1	396.76	113.58	-1165.7	303.99	140.19	-1226.7	318.63	118.95	-1159.5	379.92	130.19	-1258.6	109.05	158.53	-1230.9	117.62	256.91	-1330	78.716	205.87	-1319.9	53.626	238.44	-1323.3	53.882	176.46	-1112.8	40.401	138.98	-1085.3	45.087	259.95	-1022.4	53.683	207.43	-1234.7	1615.1	278.49	-1347	1309.4	299.85
59	0.24167	-1039.7	1291.3	271.89	-1144.7	1550.6	440.06	-1159.7	1557.9	111.58	-1056.6	1852.9	258.77	-1095.7	1048.8	431.09	-1082.9	1046.3	167.03	-1329.5	1080.3	336.22	-1334.9	1082.6	232.83	-1172.7	995.72	515.49	-1189.4	992.37	89.741	-1185.4	1149.5	491.69	-1193.8	1124.5	89.205	-1345.3	1045.6	281.76	-1082	696.22	512.27	-990.45	648.95	500.08	-1050.4	613.24	498.4	-1020.5	734.85	511.51	-1023	558.12	500.28	-990.14	559.15	352.49	-1146.9	453.75	499.36	-1134.9	349.36	464.65	-1187.2	396.85	484.31	-1098.3	410.39	486.75	-1292.6	227.53	440.55	-1245.9	213.32	354.54	-1359.5	239.39	369.95	-1353.8	205.27	338.96	-1372.1	208.78	402.8	-1235.7	93.802	488.13	-1184.5	80.262	372.83	-1136.5	65.282	437.79	-1217.6	707.41	117.62	-1129.7	637.17	117.43	-1204.8	618.12	136.57	-1153.1	729.3	96.153	-1153.8	533.03	129.01	-1129	537.48	271.12	-1220.7	396.88	113.51	-1165.5	304.01	140.07	-1226.5	318.76	118.9	-1159.1	379.95	130.06	-1258.6	109.14	158.56	-1230.9	117.71	256.9	-1330	78.809	205.91	-1319.9	53.727	238.48	-1323.3	53.981	176.5	-1112.8	40.391	138.97	-1085.3	45.114	259.9	-1022.4	53.677	207.41	-1229.3	1615.4	278.38	-1341.8	1309.8	299.46
60	0.24583	-1034.4	1291.6	272.01	-1139.7	1550.7	440.16	-1154.1	1558.3	111.59	-1051.1	1853.1	259.14	-1090.5	1049.3	430.73	-1078	1046.5	166.68	-1324.5	1080.6	336.4	-1330	1083	233.01	-1167.1	996.27	515.47	-1184.8	992.54	89.735	-1180.2	1149.9	491.53	-1189.1	1124.7	89.123	-1340.4	1046	281.96	-1074.8	697.24	512.26	-983	650.64	499.47	-1042.7	614.49	498.02	-1013.6	736.3	511.22	-1014.9	559.42	499.74	-982.55	560.91	352.15	-1137	452.3	499.1	-1122.7	348.28	464.12	-1175.9	394.53	483.91	-1087.3	410.05	486.34	-1277.7	222.91	440.17	-1230.9	209.98	354.05	-1344.9	233.09	369.74	-1339	199.24	338.88	-1356.7	202.06	402.65	-1217.2	90.822	487.59	-1165.8	78.697	372.12	-1116.9	65.238	436.91	-1215.4	708.01	117.61	-1127.9	637.11	117.39	-1203.2	618.62	136.46	-1150.7	729.39	96.122	-1153.1	533.05	128.83	-1128.3	537.24	271.01	-1220.3	396.99	113.44	-1165.2	304.03	139.95	-1226.2	318.88	118.84	-1158.8	379.97	129.94	-1258.6	109.22	158.59	-1230.8	117.8	256.9	-1329.9	78.895	205.96	-1319.9	53.819	238.52	-1323.3	54.076	176.55	-1112.8	40.38	138.95	-1085.2	45.143	259.85	-1022.4	53.671	207.39	-1223.9	1615.7	278.29	-1336.5	1310.1	299.08
